<svg xmlns="http://www.w3.org/2000/svg" xmlns:xlink="http://www.w3.org/1999/xlink" contentStyleType="text/css" height="595px" preserveAspectRatio="none" style="width:462px;height:595px;background:#FFFFFF;" version="1.1" viewBox="0 0 462 595" width="462px" zoomAndPan="magnify"><title>Catalogo - Composite</title><defs/><g><text fill="#000000" font-family="sans-serif" font-size="14" font-weight="bold" lengthAdjust="spacing" textLength="144.6689" x="154.9155" y="24.5332">Catalogo - Composite</text><!--class ItemCatalogo--><g id="elem_ItemCatalogo"><rect codeLine="5" fill="#F1F1F1" height="145.6563" id="ItemCatalogo" rx="2.5" ry="2.5" style="stroke:#181818;stroke-width:0.5;" width="303.0469" x="152.5" y="162.6094"/><ellipse cx="264.0869" cy="178.6094" fill="#B4A7E5" rx="11" ry="11" style="stroke:#181818;stroke-width:1.0;"/><path d="M265.04,175.25 L265.04,181.9063 L266.7588,181.9063 Q267.3682,181.9063 267.6338,182.1406 Q267.8994,182.375 267.8994,182.7656 Q267.8994,183.1406 267.6338,183.375 Q267.3682,183.6094 266.7588,183.6094 L261.6182,183.6094 Q261.0088,183.6094 260.7432,183.375 Q260.4775,183.1406 260.4775,182.75 Q260.4775,182.375 260.7432,182.1406 Q261.0088,181.9063 261.6182,181.9063 L263.3369,181.9063 L263.3369,175.25 L261.6182,175.25 Q261.0088,175.25 260.7432,175.0156 Q260.4775,174.7813 260.4775,174.3906 Q260.4775,174.0156 260.7432,173.7813 Q261.0088,173.5469 261.6182,173.5469 L266.7588,173.5469 Q267.3682,173.5469 267.6338,173.7813 Q267.8994,174.0156 267.8994,174.3906 Q267.8994,174.7813 267.6338,175.0156 Q267.3682,175.25 266.7588,175.25 L265.04,175.25 Z " fill="#000000"/><text fill="#000000" font-family="sans-serif" font-size="12" font-style="italic" lengthAdjust="spacing" textLength="71.373" x="284.5869" y="183.5195">ItemCatalogo</text><line style="stroke:#181818;stroke-width:0.5;" x1="153.5" x2="454.5469" y1="194.6094" y2="194.6094"/><ellipse cx="163.5" cy="208.9141" fill="#84BE84" rx="3" ry="3" style="stroke:#038048;stroke-width:1.0;"/><text fill="#000000" font-family="sans-serif" font-size="14" lengthAdjust="spacing" textLength="122.9307" x="172.5" y="213.1426">getNombre(): String</text><ellipse cx="163.5" cy="226.5234" fill="#84BE84" rx="3" ry="3" style="stroke:#038048;stroke-width:1.0;"/><text fill="#000000" font-family="sans-serif" font-size="14" lengthAdjust="spacing" textLength="146.2754" x="172.5" y="230.752">getDescripcion(): String</text><ellipse cx="163.5" cy="244.1328" fill="#84BE84" rx="3" ry="3" style="stroke:#038048;stroke-width:1.0;"/><text fill="#000000" font-family="sans-serif" font-size="14" lengthAdjust="spacing" textLength="150.1992" x="172.5" y="248.3613">getPrecioBase(): double</text><ellipse cx="163.5" cy="261.7422" fill="#84BE84" rx="3" ry="3" style="stroke:#038048;stroke-width:1.0;"/><text fill="#000000" font-family="sans-serif" font-size="14" lengthAdjust="spacing" textLength="214.0195" x="172.5" y="265.9707">perteneceA(c: Categoria): boolean</text><ellipse cx="163.5" cy="279.3516" fill="#84BE84" rx="3" ry="3" style="stroke:#038048;stroke-width:1.0;"/><text fill="#000000" font-family="sans-serif" font-size="14" lengthAdjust="spacing" textLength="277.0469" x="172.5" y="283.5801">hayStockDisponible(inv: Inventario): boolean</text><ellipse cx="163.5" cy="296.9609" fill="#84BE84" rx="3" ry="3" style="stroke:#038048;stroke-width:1.0;"/><text fill="#000000" font-family="sans-serif" font-size="14" lengthAdjust="spacing" textLength="84.0273" x="172.5" y="301.1895">validar(): void</text></g><!--class Producto--><g id="elem_Producto"><rect codeLine="13" fill="#F1F1F1" height="224.0938" id="Producto" rx="2.5" ry="2.5" style="stroke:#181818;stroke-width:0.5;" width="211.9854" x="6" y="364.6094"/><ellipse cx="83.728" cy="380.6094" fill="#ADD1B2" rx="11" ry="11" style="stroke:#181818;stroke-width:1.0;"/><path d="M86.4937,376.4844 Q86.6499,376.2656 86.8374,376.1563 Q87.0249,376.0469 87.2437,376.0469 Q87.6187,376.0469 87.853,376.3125 Q88.0874,376.5625 88.0874,377.1719 L88.0874,378.625 Q88.0874,379.2344 87.853,379.5 Q87.6187,379.7656 87.2437,379.7656 Q86.8999,379.7656 86.6968,379.5625 Q86.4937,379.375 86.3843,378.8594 Q86.3374,378.5 86.1499,378.3125 Q85.8218,377.9375 85.2124,377.7188 Q84.603,377.5 83.978,377.5 Q83.2124,377.5 82.5718,377.8281 Q81.9468,378.1563 81.4468,378.9063 Q80.9624,379.6563 80.9624,380.6875 L80.9624,381.7813 Q80.9624,383.0156 81.853,383.8438 Q82.7437,384.6563 84.3374,384.6563 Q85.2749,384.6563 85.9312,384.4063 Q86.3218,384.25 86.7437,383.8125 Q87.0093,383.5469 87.1499,383.4688 Q87.3062,383.3906 87.5093,383.3906 Q87.8374,383.3906 88.0874,383.6563 Q88.353,383.9063 88.353,384.25 Q88.353,384.5938 88.0093,385 Q87.5093,385.5781 86.7124,385.9063 Q85.6343,386.3594 84.3374,386.3594 Q82.8218,386.3594 81.6187,385.7344 Q80.6343,385.2344 79.9468,384.1719 Q79.2593,383.0938 79.2593,381.8125 L79.2593,380.6563 Q79.2593,379.3281 79.8687,378.1875 Q80.4937,377.0313 81.5874,376.4219 Q82.6812,375.7969 83.9155,375.7969 Q84.6499,375.7969 85.2905,375.9688 Q85.9468,376.125 86.4937,376.4844 Z " fill="#000000"/><text fill="#000000" font-family="sans-serif" font-size="12" lengthAdjust="spacing" textLength="48.0293" x="104.228" y="385.5195">Producto</text><line style="stroke:#181818;stroke-width:0.5;" x1="7" x2="216.9854" y1="396.6094" y2="396.6094"/><rect fill="none" height="6" style="stroke:#C82930;stroke-width:1.0;" width="6" x="14" y="407.9141"/><text fill="#000000" font-family="sans-serif" font-size="14" lengthAdjust="spacing" textLength="58.3516" x="26" y="415.1426">sku: SKU</text><rect fill="none" height="6" style="stroke:#C82930;stroke-width:1.0;" width="6" x="14" y="425.5234"/><text fill="#000000" font-family="sans-serif" font-size="14" lengthAdjust="spacing" textLength="91.8203" x="26" y="432.752">nombre: String</text><rect fill="none" height="6" style="stroke:#C82930;stroke-width:1.0;" width="6" x="14" y="443.1328"/><text fill="#000000" font-family="sans-serif" font-size="14" lengthAdjust="spacing" textLength="85.5723" x="26" y="450.3613">marca: Marca</text><rect fill="none" height="6" style="stroke:#C82930;stroke-width:1.0;" width="6" x="14" y="460.7422"/><text fill="#000000" font-family="sans-serif" font-size="14" lengthAdjust="spacing" textLength="126.0752" x="26" y="467.9707">categoria: Categoria</text><rect fill="none" height="6" style="stroke:#C82930;stroke-width:1.0;" width="6" x="14" y="478.3516"/><text fill="#000000" font-family="sans-serif" font-size="14" lengthAdjust="spacing" textLength="87.9512" x="26" y="485.5801">precio: double</text><rect fill="none" height="6" style="stroke:#C82930;stroke-width:1.0;" width="6" x="14" y="495.9609"/><text fill="#000000" font-family="sans-serif" font-size="14" lengthAdjust="spacing" textLength="118.2959" x="26" y="503.1895">precioFinal: double</text><rect fill="none" height="6" style="stroke:#C82930;stroke-width:1.0;" width="6" x="14" y="513.5703"/><text fill="#000000" font-family="sans-serif" font-size="14" lengthAdjust="spacing" textLength="185.9854" x="26" y="520.7988">atributos: Map&lt;String,Object&gt;</text><line style="stroke:#181818;stroke-width:0.5;" x1="7" x2="216.9854" y1="527.875" y2="527.875"/><ellipse cx="17" cy="542.1797" fill="#84BE84" rx="3" ry="3" style="stroke:#038048;stroke-width:1.0;"/><text fill="#000000" font-family="sans-serif" font-size="14" lengthAdjust="spacing" textLength="147.0547" x="26" y="546.4082">setAtributo(clave, valor)</text><ellipse cx="17" cy="559.7891" fill="#84BE84" rx="3" ry="3" style="stroke:#038048;stroke-width:1.0;"/><text fill="#000000" font-family="sans-serif" font-size="14" lengthAdjust="spacing" textLength="157.958" x="26" y="564.0176">getAtributo(clave): Object</text><ellipse cx="17" cy="577.3984" fill="#84BE84" rx="3" ry="3" style="stroke:#038048;stroke-width:1.0;"/><text fill="#000000" font-family="sans-serif" font-size="14" lengthAdjust="spacing" textLength="84.0273" x="26" y="581.627">validar(): void</text></g><!--class Paquete--><g id="elem_Paquete"><rect codeLine="25" fill="#F1F1F1" height="136.0469" id="Paquete" rx="2.5" ry="2.5" style="stroke:#181818;stroke-width:0.5;" width="201.0752" x="236.5" y="408.6094"/><ellipse cx="310.4341" cy="424.6094" fill="#ADD1B2" rx="11" ry="11" style="stroke:#181818;stroke-width:1.0;"/><path d="M313.1997,420.4844 Q313.356,420.2656 313.5435,420.1563 Q313.731,420.0469 313.9497,420.0469 Q314.3247,420.0469 314.5591,420.3125 Q314.7935,420.5625 314.7935,421.1719 L314.7935,422.625 Q314.7935,423.2344 314.5591,423.5 Q314.3247,423.7656 313.9497,423.7656 Q313.606,423.7656 313.4028,423.5625 Q313.1997,423.375 313.0903,422.8594 Q313.0435,422.5 312.856,422.3125 Q312.5278,421.9375 311.9185,421.7188 Q311.3091,421.5 310.6841,421.5 Q309.9185,421.5 309.2778,421.8281 Q308.6528,422.1563 308.1528,422.9063 Q307.6685,423.6563 307.6685,424.6875 L307.6685,425.7813 Q307.6685,427.0156 308.5591,427.8438 Q309.4497,428.6563 311.0435,428.6563 Q311.981,428.6563 312.6372,428.4063 Q313.0278,428.25 313.4497,427.8125 Q313.7153,427.5469 313.856,427.4688 Q314.0122,427.3906 314.2153,427.3906 Q314.5435,427.3906 314.7935,427.6563 Q315.0591,427.9063 315.0591,428.25 Q315.0591,428.5938 314.7153,429 Q314.2153,429.5781 313.4185,429.9063 Q312.3403,430.3594 311.0435,430.3594 Q309.5278,430.3594 308.3247,429.7344 Q307.3403,429.2344 306.6528,428.1719 Q305.9653,427.0938 305.9653,425.8125 L305.9653,424.6563 Q305.9653,423.3281 306.5747,422.1875 Q307.1997,421.0313 308.2935,420.4219 Q309.3872,419.7969 310.6216,419.7969 Q311.356,419.7969 311.9966,419.9688 Q312.6528,420.125 313.1997,420.4844 Z " fill="#000000"/><text fill="#000000" font-family="sans-serif" font-size="12" lengthAdjust="spacing" textLength="44.707" x="330.9341" y="429.5195">Paquete</text><line style="stroke:#181818;stroke-width:0.5;" x1="237.5" x2="436.5752" y1="440.6094" y2="440.6094"/><rect fill="none" height="6" style="stroke:#C82930;stroke-width:1.0;" width="6" x="244.5" y="451.9141"/><text fill="#000000" font-family="sans-serif" font-size="14" lengthAdjust="spacing" textLength="91.8203" x="256.5" y="459.1426">nombre: String</text><rect fill="none" height="6" style="stroke:#C82930;stroke-width:1.0;" width="6" x="244.5" y="469.5234"/><text fill="#000000" font-family="sans-serif" font-size="14" lengthAdjust="spacing" textLength="115.165" x="256.5" y="476.752">descripcion: String</text><rect fill="none" height="6" style="stroke:#C82930;stroke-width:1.0;" width="6" x="244.5" y="487.1328"/><text fill="#000000" font-family="sans-serif" font-size="14" lengthAdjust="spacing" textLength="114.4268" x="256.5" y="494.3613">descuento: double</text><line style="stroke:#181818;stroke-width:0.5;" x1="237.5" x2="436.5752" y1="501.4375" y2="501.4375"/><ellipse cx="247.5" cy="515.7422" fill="#84BE84" rx="3" ry="3" style="stroke:#038048;stroke-width:1.0;"/><text fill="#000000" font-family="sans-serif" font-size="14" lengthAdjust="spacing" textLength="175.0752" x="256.5" y="519.9707">agregar(item: ItemCatalogo)</text><ellipse cx="247.5" cy="533.3516" fill="#84BE84" rx="3" ry="3" style="stroke:#038048;stroke-width:1.0;"/><text fill="#000000" font-family="sans-serif" font-size="14" lengthAdjust="spacing" textLength="150.1992" x="256.5" y="537.5801">getPrecioBase(): double</text></g><!--class Catalogo--><g id="elem_Catalogo"><rect codeLine="32" fill="#F1F1F1" height="75.2188" id="Catalogo" rx="2.5" ry="2.5" style="stroke:#181818;stroke-width:0.5;" width="301.4336" x="153.5" y="50.6094"/><ellipse cx="275.9492" cy="66.6094" fill="#ADD1B2" rx="11" ry="11" style="stroke:#181818;stroke-width:1.0;"/><path d="M278.7148,62.4844 Q278.8711,62.2656 279.0586,62.1563 Q279.2461,62.0469 279.4648,62.0469 Q279.8398,62.0469 280.0742,62.3125 Q280.3086,62.5625 280.3086,63.1719 L280.3086,64.625 Q280.3086,65.2344 280.0742,65.5 Q279.8398,65.7656 279.4648,65.7656 Q279.1211,65.7656 278.918,65.5625 Q278.7148,65.375 278.6055,64.8594 Q278.5586,64.5 278.3711,64.3125 Q278.043,63.9375 277.4336,63.7188 Q276.8242,63.5 276.1992,63.5 Q275.4336,63.5 274.793,63.8281 Q274.168,64.1563 273.668,64.9063 Q273.1836,65.6563 273.1836,66.6875 L273.1836,67.7813 Q273.1836,69.0156 274.0742,69.8438 Q274.9648,70.6563 276.5586,70.6563 Q277.4961,70.6563 278.1523,70.4063 Q278.543,70.25 278.9648,69.8125 Q279.2305,69.5469 279.3711,69.4688 Q279.5273,69.3906 279.7305,69.3906 Q280.0586,69.3906 280.3086,69.6563 Q280.5742,69.9063 280.5742,70.25 Q280.5742,70.5938 280.2305,71 Q279.7305,71.5781 278.9336,71.9063 Q277.8555,72.3594 276.5586,72.3594 Q275.043,72.3594 273.8398,71.7344 Q272.8555,71.2344 272.168,70.1719 Q271.4805,69.0938 271.4805,67.8125 L271.4805,66.6563 Q271.4805,65.3281 272.0898,64.1875 Q272.7148,63.0313 273.8086,62.4219 Q274.9023,61.7969 276.1367,61.7969 Q276.8711,61.7969 277.5117,61.9688 Q278.168,62.125 278.7148,62.4844 Z " fill="#000000"/><text fill="#000000" font-family="sans-serif" font-size="12" lengthAdjust="spacing" textLength="48.0352" x="296.4492" y="71.5195">Catalogo</text><line style="stroke:#181818;stroke-width:0.5;" x1="154.5" x2="453.9336" y1="82.6094" y2="82.6094"/><ellipse cx="164.5" cy="96.9141" fill="#84BE84" rx="3" ry="3" style="stroke:#038048;stroke-width:1.0;"/><text fill="#000000" font-family="sans-serif" font-size="14" lengthAdjust="spacing" textLength="175.0752" x="173.5" y="101.1426">agregar(item: ItemCatalogo)</text><ellipse cx="164.5" cy="114.5234" fill="#84BE84" rx="3" ry="3" style="stroke:#038048;stroke-width:1.0;"/><text fill="#000000" font-family="sans-serif" font-size="14" lengthAdjust="spacing" textLength="275.4336" x="173.5" y="118.752">buscar(criterio: Criterio): List&lt;ItemCatalogo&gt;</text></g><polygon fill="none" points="246.1333,308.6414,230.1826,318.9164,239.5377,326.4318,246.1333,308.6414" style="stroke:#181818;stroke-width:1.0;"/><path d="M234.8602,322.6741 C220.7269,340.267 216.5501,345.4663 201.3251,364.4182 " fill="none" style="stroke:#181818;stroke-width:1.0;stroke-dasharray:7.0,7.0;"/><polygon fill="none" points="312.9851,308.8237,309.3389,327.4437,321.2401,325.9074,312.9851,308.8237" style="stroke:#181818;stroke-width:1.0;"/><path d="M315.2895,326.6755 C316.9162,339.2767 316.3245,334.403 318,346.6094 C320.7552,366.6817 323.9063,388.4863 326.8396,408.3586 " fill="none" style="stroke:#181818;stroke-width:1.0;stroke-dasharray:7.0,7.0;"/><polygon fill="none" points="327.6953,408.2206,330.837,401.7299,326.0539,396.3334,322.9122,402.8241,327.6953,408.2206" style="stroke:#181818;stroke-width:1.0;"/><path d="M326.0539,396.3334 C321.765,365.2708 318.3107,340.2537 313.9458,308.6414 " fill="none" style="stroke:#181818;stroke-width:1.0;"/><text fill="#000000" font-family="sans-serif" font-size="13" lengthAdjust="spacing" textLength="31.0591" x="321" y="342.1045">items</text><text fill="#000000" font-family="sans-serif" font-size="13" lengthAdjust="spacing" textLength="5.0591" x="307.9458" y="323.1365">*</text><text fill="#000000" font-family="sans-serif" font-size="13" lengthAdjust="spacing" textLength="7.23" x="319.6953" y="404.7157">1</text><polygon fill="none" points="304,125.8252,300,131.8252,304,137.8252,308,131.8252,304,125.8252" style="stroke:#181818;stroke-width:1.0;"/><path d="M304,137.8252 C304,149.0219 304,149.7421 304,162.4388 " fill="none" style="stroke:#181818;stroke-width:1.0;"/><text fill="#000000" font-family="sans-serif" font-size="13" lengthAdjust="spacing" textLength="5.0591" x="298" y="158.9339">*</text><text fill="#000000" font-family="sans-serif" font-size="13" lengthAdjust="spacing" textLength="7.23" x="296" y="140.3203">1</text><!--SRC=[XLBRRjim37tNLt1vIjQwGFTe10Mw50MAtGe4-m1QPbqjbgX9j87iyk-JOYUrrxLxidnuI9v3yeqFs5Y45lVS2KHBWWxLewa9o7hPWoLRKOWgxepp6D22RZ76MtQoDJy8BjyfCT8IR52mvOQXW0rRpz48AUE4mWDgWZiXUwByL01d3SbdjbMWvQg4hGJZcX6-eQY3yTgmUnQx3vJmznWFQJLtLKivv2a8ET9qlTHb5aCD1uE9Kp6tX2wJ7d6_5TQx6nCzEvDIbyRr9TovdfnWC3pdzzYQ6aFkrBEfrMzrC0_tWUjEos2aYBikYVpmDR_TmT54Ss4nQ2pXK_xaVtsKDb6PSNymDh4q8hV6OJk5CPMkEk6OY_hrqEdyI_MDj5nbrP7aUkGiazwUpY4PuR0QHpWF9cz3xgk6yNj7GeFVvnxhfuNz3NTfi5DNPzW4QbABT1wsd9t5whKL7vNCR-W_nQekwXHDsj8Pvk5knbUg-z54MKyphbAFsPMkVrrSd5Rzhz0m57KSpk9o0LmKi7Yxc9zx2LbVL2VW9UOV]--></g></svg>